<?xml version="1.0" encoding="UTF-8" standalone="no"?>
<!DOCTYPE svg PUBLIC "-//W3C//DTD SVG 1.1//EN"
 "http://www.w3.org/Graphics/SVG/1.1/DTD/svg11.dtd">
<!-- Generated by graphviz version 2.38.0 (20140413.2041)
 -->
<!-- Title: workflow Pages: 1 -->
<svg width="249pt" height="278pt"
 viewBox="0.00 0.00 256.00 286.00" xmlns="http://www.w3.org/2000/svg" xmlns:xlink="http://www.w3.org/1999/xlink">
<g id="graph0" class="graph" transform="scale(0.972222 0.972222) rotate(0) translate(4 282)">
<title>workflow</title>
<g id="clust1" class="cluster"><title>cluster_inputs</title>
<polygon fill="none" stroke="black" stroke-dasharray="5,2" points="93,-215 93,-270 173,-270 173,-215 93,-215"/>
<text text-anchor="middle" x="133" y="-258" font-family="Times,serif" font-size="10.00">Workflow Inputs</text>
</g>
<g id="clust2" class="cluster"><title>cluster_outputs</title>
<polygon fill="none" stroke="black" stroke-dasharray="5,2" points="92,-8 92,-63 179,-63 179,-8 92,-8"/>
<text text-anchor="middle" x="135.5" y="-15" font-family="Times,serif" font-size="10.00">Workflow Outputs</text>
</g>
<!-- sequence -->
<g id="node1" class="node"><title>sequence</title>
<polygon fill="#94ddf4" stroke="black" points="104,-223.5 104,-242.5 162,-242.5 162,-223.5 104,-223.5"/>
<text text-anchor="middle" x="133" y="-230.5" font-family="Helvetica,sans-Serif" font-size="10.00">sequence</text>
</g>
<!-- vecscreen_adaptor -->
<g id="node5" class="node"><title>vecscreen_adaptor</title>
<polygon fill="lightgoldenrodyellow" stroke="black" points="0,-170.5 0,-189.5 98,-189.5 98,-170.5 0,-170.5"/>
<text text-anchor="middle" x="49" y="-177.5" font-family="Helvetica,sans-Serif" font-size="10.00">vecscreen_adaptor</text>
</g>
<!-- sequence&#45;&gt;vecscreen_adaptor -->
<g id="edge5" class="edge"><title>sequence&#45;&gt;vecscreen_adaptor</title>
<path fill="none" stroke="black" d="M118.751,-223.349C105.153,-215.093 84.5311,-202.572 69.2333,-193.284"/>
<polygon fill="black" stroke="black" points="70.2941,-191.062 63.039,-189.524 67.751,-195.251 70.2941,-191.062"/>
<text text-anchor="middle" x="101.5" y="-200.6" font-family="Helvetica,sans-Serif" font-size="8.00">query</text>
</g>
<!-- blast_mito -->
<g id="node6" class="node"><title>blast_mito</title>
<polygon fill="lightgoldenrodyellow" stroke="black" points="102.5,-170.5 102.5,-189.5 163.5,-189.5 163.5,-170.5 102.5,-170.5"/>
<text text-anchor="middle" x="133" y="-177.5" font-family="Helvetica,sans-Serif" font-size="10.00">blast_mito</text>
</g>
<!-- sequence&#45;&gt;blast_mito -->
<g id="edge6" class="edge"><title>sequence&#45;&gt;blast_mito</title>
<path fill="none" stroke="black" d="M133,-223.116C133,-215.877 133,-205.471 133,-196.815"/>
<polygon fill="black" stroke="black" points="135.45,-196.782 133,-189.782 130.55,-196.782 135.45,-196.782"/>
<text text-anchor="middle" x="143.5" y="-200.6" font-family="Helvetica,sans-Serif" font-size="8.00">query</text>
</g>
<!-- blast_common -->
<g id="node9" class="node"><title>blast_common</title>
<polygon fill="lightgoldenrodyellow" stroke="black" points="168,-170.5 168,-189.5 248,-189.5 248,-170.5 168,-170.5"/>
<text text-anchor="middle" x="208" y="-177.5" font-family="Helvetica,sans-Serif" font-size="10.00">blast_common</text>
</g>
<!-- sequence&#45;&gt;blast_common -->
<g id="edge9" class="edge"><title>sequence&#45;&gt;blast_common</title>
<path fill="none" stroke="black" d="M145.723,-223.349C157.755,-215.167 175.948,-202.796 189.568,-193.534"/>
<polygon fill="black" stroke="black" points="191.054,-195.486 195.465,-189.524 188.299,-191.434 191.054,-195.486"/>
<text text-anchor="middle" x="192.5" y="-200.6" font-family="Helvetica,sans-Serif" font-size="8.00">query</text>
</g>
<!-- result -->
<g id="node2" class="node"><title>result</title>
<polygon fill="#94ddf4" stroke="black" points="113,-35.5 113,-54.5 153,-54.5 153,-35.5 113,-35.5"/>
<text text-anchor="middle" x="133" y="-42.5" font-family="Helvetica,sans-Serif" font-size="10.00">result</text>
</g>
<!-- filter_mito -->
<g id="node3" class="node"><title>filter_mito</title>
<polygon fill="lightgoldenrodyellow" stroke="black" points="103.5,-125.5 103.5,-144.5 162.5,-144.5 162.5,-125.5 103.5,-125.5"/>
<text text-anchor="middle" x="133" y="-132.5" font-family="Helvetica,sans-Serif" font-size="10.00">filter_mito</text>
</g>
<!-- combine -->
<g id="node4" class="node"><title>combine</title>
<polygon fill="lightgoldenrodyellow" stroke="black" points="106.5,-80.5 106.5,-99.5 159.5,-99.5 159.5,-80.5 106.5,-80.5"/>
<text text-anchor="middle" x="133" y="-87.5" font-family="Helvetica,sans-Serif" font-size="10.00">combine</text>
</g>
<!-- filter_mito&#45;&gt;combine -->
<g id="edge2" class="edge"><title>filter_mito&#45;&gt;combine</title>
<path fill="none" stroke="black" d="M133,-125.298C133,-120.053 133,-113.209 133,-107.016"/>
<polygon fill="black" stroke="black" points="135.45,-106.689 133,-99.6888 130.55,-106.689 135.45,-106.689"/>
<text text-anchor="middle" x="151.5" y="-110.6" font-family="Helvetica,sans-Serif" font-size="8.00">input_mito</text>
</g>
<!-- combine&#45;&gt;result -->
<g id="edge10" class="edge"><title>combine&#45;&gt;result</title>
<path fill="none" stroke="black" d="M133,-80.2983C133,-75.0528 133,-68.2092 133,-62.0161"/>
<polygon fill="black" stroke="black" points="135.45,-61.6887 133,-54.6888 130.55,-61.6888 135.45,-61.6887"/>
</g>
<!-- filter_adaptor -->
<g id="node8" class="node"><title>filter_adaptor</title>
<polygon fill="lightgoldenrodyellow" stroke="black" points="22,-125.5 22,-144.5 94,-144.5 94,-125.5 22,-125.5"/>
<text text-anchor="middle" x="58" y="-132.5" font-family="Helvetica,sans-Serif" font-size="10.00">filter_adaptor</text>
</g>
<!-- vecscreen_adaptor&#45;&gt;filter_adaptor -->
<g id="edge8" class="edge"><title>vecscreen_adaptor&#45;&gt;filter_adaptor</title>
<path fill="none" stroke="black" d="M50.8213,-170.298C51.9436,-164.936 53.4154,-157.904 54.734,-151.604"/>
<polygon fill="black" stroke="black" points="57.1453,-152.042 56.1814,-144.689 52.3493,-151.038 57.1453,-152.042"/>
<text text-anchor="middle" x="71" y="-155.6" font-family="Helvetica,sans-Serif" font-size="8.00">input_file</text>
</g>
<!-- blast_mito&#45;&gt;filter_mito -->
<g id="edge1" class="edge"><title>blast_mito&#45;&gt;filter_mito</title>
<path fill="none" stroke="black" d="M133,-170.298C133,-165.053 133,-158.209 133,-152.016"/>
<polygon fill="black" stroke="black" points="135.45,-151.689 133,-144.689 130.55,-151.689 135.45,-151.689"/>
<text text-anchor="middle" x="149" y="-155.6" font-family="Helvetica,sans-Serif" font-size="8.00">input_file</text>
</g>
<!-- filter_common -->
<g id="node7" class="node"><title>filter_common</title>
<polygon fill="lightgoldenrodyellow" stroke="black" points="167.5,-125.5 167.5,-144.5 244.5,-144.5 244.5,-125.5 167.5,-125.5"/>
<text text-anchor="middle" x="206" y="-132.5" font-family="Helvetica,sans-Serif" font-size="10.00">filter_common</text>
</g>
<!-- filter_common&#45;&gt;combine -->
<g id="edge3" class="edge"><title>filter_common&#45;&gt;combine</title>
<path fill="none" stroke="black" d="M195.693,-125.406C188.932,-120.009 179.753,-113.126 171,-108 167.808,-106.13 164.373,-104.329 160.92,-102.643"/>
<polygon fill="black" stroke="black" points="161.695,-100.301 154.316,-99.5554 159.62,-104.74 161.695,-100.301"/>
<text text-anchor="middle" x="212" y="-110.6" font-family="Helvetica,sans-Serif" font-size="8.00">input_common</text>
</g>
<!-- filter_adaptor&#45;&gt;combine -->
<g id="edge4" class="edge"><title>filter_adaptor&#45;&gt;combine</title>
<path fill="none" stroke="black" d="M64.2507,-125.205C68.6476,-119.588 74.9825,-112.533 82,-108 87.4117,-104.504 93.6133,-101.657 99.7851,-99.3639"/>
<polygon fill="black" stroke="black" points="100.603,-101.674 106.432,-97.088 99.0156,-97.0378 100.603,-101.674"/>
<text text-anchor="middle" x="107" y="-110.6" font-family="Helvetica,sans-Serif" font-size="8.00">input_adaptor</text>
</g>
<!-- blast_common&#45;&gt;filter_common -->
<g id="edge7" class="edge"><title>blast_common&#45;&gt;filter_common</title>
<path fill="none" stroke="black" d="M207.595,-170.298C207.351,-165.053 207.033,-158.209 206.745,-152.016"/>
<polygon fill="black" stroke="black" points="209.177,-151.567 206.404,-144.689 204.282,-151.795 209.177,-151.567"/>
<text text-anchor="middle" x="224" y="-155.6" font-family="Helvetica,sans-Serif" font-size="8.00">input_file</text>
</g>
</g>
</svg>
